# xmcd
#
# Track frame offsets:
#       150
#       13128
#       25019
#       40851
#       53743
#       63433
#       80758
#       91231
#       106461
#       117146
#       129739
#       141025
#
# Disc length: 2072 seconds
#
# Revision: 0
# Processed by: cddbd v1.5PL3 Copyright (c) Steve Scherf et al.
# Submitted via: CD-DA_X-Tractor v0.24
#
DISCID=9c08160c
DTITLE=Booker T and The MG's - Green Onions
DYEAR=1994
DGENRE=
TTITLE0=Green Onions
TTITLE1=Rinky Dink
TTITLE2=I Got A Woman
TTITLE3=Mo' Onions
TTITLE4=Twist And Shout
TTITLE5=Behave Yourself
TTITLE6=Stranger On The Shore
TTITLE7=Lonely Avenue
TTITLE8=One Who Really Loves You
TTITLE9=You Can't Sit Down
TTITLE10=Woman A Lover A Friend
TTITLE11=Comin' Home Baby
EXTD=
EXTT0=
EXTT1=
EXTT2=
EXTT3=
EXTT4=
EXTT5=
EXTT6=
EXTT7=
EXTT8=
EXTT9=
EXTT10=
EXTT11=
PLAYORDER=
